<?xml version="1.0" encoding="UTF-8"?>
<svg xmlns="http://www.w3.org/2000/svg" xmlns:xlink="http://www.w3.org/1999/xlink" viewBox="0 0 64 64" width="64px" height="64px">
<g id="surface24738739">
<path style=" stroke:none;fill-rule:nonzero;fill:rgb(100%,100%,100%);fill-opacity:1;" d="M 13 6 C 9.140625 6 6 9.140625 6 13 L 6 51 C 6 54.859375 9.140625 58 13 58 L 51 58 C 54.859375 58 58 54.859375 58 51 L 58 13 C 58 9.140625 54.859375 6 51 6 Z M 13 8 L 51 8 C 53.757812 8 56 10.242188 56 13 L 56 51 C 56 53.757812 53.757812 56 51 56 L 13 56 C 10.242188 56 8 53.757812 8 51 L 8 13 C 8 10.242188 10.242188 8 13 8 Z M 33.8125 11.007812 C 26.207031 11.3125 18 18.933594 18 30.710938 C 18 42.574219 28.15625 45 30.878906 45 C 31.261719 45 40.304688 44.902344 45.320312 36.332031 C 46.582031 33.992188 45.910156 32.246094 44.679688 31.550781 C 43.464844 30.863281 41.496094 31.144531 40.042969 33.378906 C 38.15625 36.277344 35.03125 38.074219 31.886719 38.074219 C 28.894531 38.074219 26.324219 34.023438 26.324219 30.703125 C 26.324219 27.527344 29.089844 17.605469 34.121094 16.992188 C 34.96875 16.890625 35.347656 17.285156 35.496094 17.527344 C 35.855469 18.109375 35.894531 18.640625 35.75 18.839844 C 34.929688 19.976562 34.769531 21.371094 35.335938 22.476562 C 35.808594 23.390625 36.6875 23.953125 37.699219 23.980469 C 38.480469 23.984375 39.992188 23.6875 41.300781 21.441406 C 42.617188 19.1875 42.609375 16.777344 41.285156 14.652344 C 39.804688 12.28125 36.933594 10.878906 33.8125 11.007812 Z M 34.203125 13 C 36.488281 13 38.535156 14.023438 39.589844 15.714844 C 40.53125 17.21875 40.523438 18.808594 39.578125 20.433594 C 38.75 21.84375 38.03125 21.980469 37.75 21.976562 C 37.480469 21.96875 37.25 21.816406 37.117188 21.5625 C 36.894531 21.128906 36.992188 20.535156 37.371094 20.011719 C 38.035156 19.085938 37.972656 17.734375 37.203125 16.480469 C 36.949219 16.070312 35.96875 14.746094 33.878906 15.007812 C 27.304688 15.808594 24.324219 27.316406 24.324219 30.703125 C 24.324219 35.035156 27.628906 40.074219 31.886719 40.074219 C 35.699219 40.074219 39.464844 37.925781 41.71875 34.46875 C 42.511719 33.246094 43.355469 33.09375 43.695312 33.289062 C 44.074219 33.503906 44.179688 34.234375 43.574219 35.351562 C 39.148438 42.914062 31.214844 43 30.875 43 C 28.578125 43 20 40.914062 20 30.710938 C 20 20.121094 27.210938 13.273438 33.890625 13.007812 C 33.996094 13 34.097656 13 34.199219 13 Z M 12 48 C 11.449219 48 11 48.449219 11 49 L 11 51 C 11 51.550781 11.449219 52 12 52 C 12.550781 52 13 51.550781 13 51 L 13 49 C 13 48.449219 12.550781 48 12 48 Z M 17 48 C 16.449219 48 16 48.449219 16 49 L 16 51 C 16 51.550781 16.449219 52 17 52 C 17.550781 52 18 51.550781 18 51 L 18 49 C 18 48.449219 17.550781 48 17 48 Z M 22 48 C 21.449219 48 21 48.449219 21 49 L 21 51 C 21 51.550781 21.449219 52 22 52 C 22.550781 52 23 51.550781 23 51 L 23 49 C 23 48.449219 22.550781 48 22 48 Z M 27 48 C 26.449219 48 26 48.449219 26 49 L 26 51 C 26 51.550781 26.449219 52 27 52 C 27.550781 52 28 51.550781 28 51 L 28 49 C 28 48.449219 27.550781 48 27 48 Z M 32 48 C 31.449219 48 31 48.449219 31 49 L 31 51 C 31 51.550781 31.449219 52 32 52 C 32.550781 52 33 51.550781 33 51 L 33 49 C 33 48.449219 32.550781 48 32 48 Z M 37 48 C 36.449219 48 36 48.449219 36 49 L 36 51 C 36 51.550781 36.449219 52 37 52 C 37.550781 52 38 51.550781 38 51 L 38 49 C 38 48.449219 37.550781 48 37 48 Z M 42 48 C 41.449219 48 41 48.449219 41 49 L 41 51 C 41 51.550781 41.449219 52 42 52 C 42.550781 52 43 51.550781 43 51 L 43 49 C 43 48.449219 42.550781 48 42 48 Z M 47 48 C 46.449219 48 46 48.449219 46 49 L 46 51 C 46 51.550781 46.449219 52 47 52 C 47.550781 52 48 51.550781 48 51 L 48 49 C 48 48.449219 47.550781 48 47 48 Z M 52 48 C 51.449219 48 51 48.449219 51 49 L 51 51 C 51 51.550781 51.449219 52 52 52 C 52.550781 52 53 51.550781 53 51 L 53 49 C 53 48.449219 52.550781 48 52 48 Z M 52 48 "/>
</g>
</svg>
