<?xml version="1.0" encoding="UTF-8"?>
<svg xmlns="http://www.w3.org/2000/svg" xmlns:xlink="http://www.w3.org/1999/xlink" viewBox="0 0 50 50" width="50px" height="50px">
<g id="surface24775234">
<path style=" stroke:none;fill-rule:nonzero;fill:rgb(100%,100%,100%);fill-opacity:1;" d="M 25.5 6 C 21.957031 6 18.570312 6.945312 15.574219 8.726562 L 22.550781 12.472656 C 25.6875 14.160156 27.910156 17.042969 28.777344 20.460938 L 29.085938 20.921875 L 32.460938 25.988281 L 33.148438 27.019531 C 34.992188 27.09375 36.390625 28.441406 36.96875 30.757812 C 37.792969 34.042969 35.800781 36.539062 33.660156 37.777344 C 32.207031 38.730469 28.925781 39.5 26 39.5 C 21.285156 39.5 16.757812 37.652344 14.175781 34.679688 C 12.375 32.601562 11.625 30.09375 12.003906 27.429688 C 12.007812 27.40625 12.019531 27.390625 12.023438 27.367188 C 12.035156 27.335938 12.046875 27.304688 12.058594 27.273438 C 12.074219 27.246094 12.089844 27.226562 12.105469 27.199219 C 12.128906 27.171875 12.152344 27.148438 12.179688 27.121094 C 12.199219 27.105469 12.222656 27.09375 12.242188 27.078125 C 12.277344 27.058594 12.308594 27.042969 12.34375 27.03125 C 12.371094 27.023438 12.402344 27.019531 12.429688 27.011719 C 12.453125 27.011719 12.476562 27 12.5 27 C 12.511719 27 12.523438 27.007812 12.535156 27.007812 C 12.546875 27.007812 12.558594 27.003906 12.570312 27.003906 C 12.59375 27.007812 12.613281 27.019531 12.632812 27.027344 C 12.664062 27.035156 12.695312 27.046875 12.726562 27.058594 C 12.753906 27.074219 12.78125 27.09375 12.804688 27.113281 C 12.828125 27.132812 12.855469 27.152344 12.875 27.175781 C 12.894531 27.203125 12.910156 27.226562 12.925781 27.253906 C 12.945312 27.28125 12.957031 27.308594 12.96875 27.339844 C 12.980469 27.371094 12.984375 27.40625 12.988281 27.4375 C 12.988281 27.460938 13 27.476562 13 27.5 C 13 28.902344 13.421875 29.976562 14.289062 30.78125 C 15.859375 32.246094 18.941406 32.828125 23.464844 32.5 C 25.753906 32.339844 27.574219 31.925781 29 31.246094 C 29 31.21875 29 31.171875 29 31.136719 L 27.976562 30.453125 L 23.484375 27.460938 L 23.308594 27.445312 C 19.585938 27.132812 16.214844 25.207031 14.0625 22.15625 L 9.039062 15.039062 C 7.046875 18.164062 6 21.746094 6 25.5 C 6 36.253906 14.746094 45 25.5 45 C 36.253906 45 45 36.253906 45 25.5 C 45 14.746094 36.253906 6 25.5 6 Z M 5.917969 6.007812 C 5.808594 6.027344 5.707031 6.078125 5.632812 6.164062 C 5.515625 6.292969 5.503906 6.457031 5.542969 6.617188 L 15.695312 21.003906 C 17.292969 23.265625 19.6875 24.777344 22.378906 25.289062 L 22.378906 25.28125 C 22.449219 24.042969 22.894531 22.863281 23.632812 21.960938 C 24.378906 21.054688 25.394531 20.429688 26.582031 20.15625 L 26.605469 20.152344 C 25.75 17.628906 23.992188 15.519531 21.601562 14.234375 L 6.238281 6.0625 C 6.140625 6.007812 6.027344 5.988281 5.917969 6.007812 Z M 27.386719 22.03125 L 27.050781 22.109375 C 26.289062 22.285156 25.664062 22.660156 25.199219 23.226562 C 24.722656 23.804688 24.441406 24.574219 24.394531 25.390625 L 24.378906 25.675781 L 29.054688 28.789062 C 29.457031 28.082031 30.050781 27.5 30.761719 27.097656 Z M 32.96875 28.503906 C 32.894531 28.503906 32.816406 28.507812 32.742188 28.515625 C 31.710938 28.617188 30.796875 29.410156 30.570312 30.402344 C 30.335938 31.417969 30.671875 32.414062 31.457031 33.003906 C 32.40625 33.71875 32.53125 34.777344 32.523438 35.816406 L 32.519531 36.769531 L 33.308594 36.230469 C 34.203125 35.617188 36.207031 33.894531 35.515625 31.125 C 35.09375 29.425781 34.1875 28.503906 32.96875 28.503906 Z M 32.96875 28.503906 "/>
</g>
</svg>
