<?xml version="1.0" encoding="UTF-8"?>
<svg xmlns="http://www.w3.org/2000/svg" xmlns:xlink="http://www.w3.org/1999/xlink" viewBox="0 0 50 50" width="50px" height="50px">
<g id="surface24780037">
<path style=" stroke:none;fill-rule:nonzero;fill:rgb(100%,100%,100%);fill-opacity:1;" d="M 35.445312 2.011719 C 35.058594 2.023438 34.667969 2.125 34.320312 2.308594 C 35.226562 2.757812 35.867188 3.640625 35.96875 4.691406 C 35.988281 4.816406 36 4.933594 36 4.988281 L 36 44.988281 C 36 46.175781 35.304688 47.191406 34.308594 47.679688 C 34.671875 47.875 35.078125 47.988281 35.5 47.988281 C 35.871094 47.988281 36.226562 47.902344 36.542969 47.757812 L 36.546875 47.761719 C 38.152344 46.929688 46.191406 42.765625 46.488281 42.597656 C 47.421875 42.0625 48 41.0625 48 39.988281 L 48 9.988281 C 48 8.992188 47.503906 8.0625 46.679688 7.503906 C 46.359375 7.285156 36.582031 2.238281 36.582031 2.238281 L 36.582031 2.242188 C 36.222656 2.074219 35.832031 2 35.445312 2.011719 Z M 33 3.988281 C 32.742188 3.988281 32.488281 4.085938 32.292969 4.28125 C 32.292969 4.28125 26.570312 10.71875 20.230469 17.839844 L 27.722656 23.972656 L 34 18.6875 L 34 4.988281 C 34 4.730469 33.902344 4.476562 33.707031 4.28125 C 33.511719 4.085938 33.257812 3.988281 33 3.988281 Z M 8 10.988281 C 7.84375 10.988281 7.554688 10.988281 6.257812 11.589844 C 5.539062 11.921875 3.050781 13.226562 3.050781 13.226562 C 2.722656 13.40625 2.453125 13.6875 2.269531 14.011719 C 2.34375 14 2.417969 13.988281 2.5 13.988281 C 3.167969 13.988281 3.578125 14.453125 3.722656 14.605469 C 3.722656 14.605469 31.929688 45.332031 32.292969 45.695312 C 32.488281 45.890625 32.742188 45.988281 33 45.988281 C 33.253906 45.988281 33.511719 45.890625 33.707031 45.695312 C 33.898438 45.5 34 45.246094 34 44.988281 L 34 31.65625 C 34 31.65625 9.535156 11.660156 9.34375 11.507812 C 8.976562 11.171875 8.496094 10.988281 8 10.988281 Z M 2.199219 15.988281 C 2.089844 15.988281 2 16.078125 2 16.1875 L 2 34.792969 C 2 34.902344 2.085938 34.988281 2.195312 34.988281 C 2.25 34.988281 2.300781 34.964844 2.335938 34.925781 L 8 28.636719 L 8 22.007812 L 2.34375 16.046875 C 2.304688 16.011719 2.253906 15.988281 2.199219 15.988281 Z M 12.253906 26.800781 C 12.253906 26.800781 3.660156 36.453125 3.558594 36.550781 C 3.289062 36.820312 2.914062 36.988281 2.5 36.988281 C 2.421875 36.988281 2.347656 36.980469 2.273438 36.964844 C 2.472656 37.316406 2.769531 37.605469 3.136719 37.785156 L 3.132812 37.789062 C 4.003906 38.234375 6.875 39.691406 7.25 39.84375 C 7.488281 39.941406 7.742188 39.988281 8 39.988281 C 8.347656 39.988281 8.691406 39.898438 8.996094 39.722656 C 9.019531 39.710938 17.527344 32.550781 17.527344 32.550781 Z M 12.253906 26.800781 "/>
</g>
</svg>
